<svg width="96" height="96" xmlns="http://www.w3.org/2000/svg" xmlns:xlink="http://www.w3.org/1999/xlink" xml:space="preserve" overflow="hidden"><defs><clipPath id="clip0"><rect x="40" y="400" width="96" height="96"/></clipPath></defs><g clip-path="url(#clip0)" transform="translate(-40 -400)"><path d="M117.69 463.144C113.163 457.176 106.963 449 106.963 434.171 106.963 427.213 102.963 420.721 97.063 418.048 96.349 417.701 95.6071 417.416 94.845 417.194 94.9198 416.787 94.9586 416.374 94.961 415.96 94.9755 412.116 91.8712 408.988 88.0273 408.974 84.1834 408.959 81.0556 412.064 81.0411 415.908 81.0395 416.329 81.0763 416.751 81.151 417.166 80.4095 417.384 79.6895 417.67 79 418.019 73.042 420.719 69.039 427.213 69.039 434.171 69.039 449.003 62.839 457.176 58.312 463.144 55.741 466.531 53.712 469.206 53.712 472.029 53.712 479.846 68.993 486.572 87.361 486.982L88.643 486.982C107.011 486.572 122.292 479.846 122.292 472.029 122.29 469.206 120.261 466.531 117.69 463.144ZM88 411C90.738 411.003 92.9567 413.222 92.96 415.96 92.9581 416.207 92.9381 416.453 92.9 416.697 92.181 416.545 91.392 416.404 90.5 416.297 88.4232 416.046 86.3214 416.09 84.257 416.428 83.847 416.497 83.463 416.572 83.098 416.651 83.0641 416.422 83.0457 416.19 83.043 415.958 83.0474 413.222 85.264 411.005 88 411ZM59.9 464.353C64.334 458.508 71.035 449.676 71.035 434.171 70.9683 428.075 74.4152 422.484 79.892 419.805 81.3764 419.106 82.9574 418.634 84.582 418.405 85.6455 418.228 86.7218 418.139 87.8 418.14 88.6248 418.141 89.4488 418.189 90.268 418.285 92.3118 418.467 94.3103 418.993 96.179 419.84 101.622 422.527 105.04 428.101 104.966 434.171 104.966 449.676 111.666 458.508 116.101 464.353 117.418 465.965 118.59 467.691 119.601 469.511 119.615 469.538 119.608 469.543 119.586 469.521 114.313 464.371 100.8 461.15 88 461.15 75.2 461.15 61.689 464.37 56.42 469.52 56.398 469.542 56.391 469.538 56.405 469.509 57.4147 467.69 58.5843 465.965 59.9 464.353ZM92.063 466.22C92.6888 468.471 91.3716 470.803 89.1208 471.429 88.3799 471.635 87.5969 471.635 86.856 471.429 85.4346 471.042 84.3241 469.932 83.937 468.511 83.31 466.261 84.626 463.928 86.8764 463.301 87.6181 463.094 88.4022 463.094 89.144 463.3 90.5659 463.687 91.6765 464.798 92.063 466.22ZM88 484.993C71.4 484.753 58.625 479.314 56.152 473.9 56.652 469.217 67.841 464.151 83.326 463.283 81.0637 465.864 81.3223 469.791 83.9037 472.053 86.485 474.316 90.4117 474.057 92.674 471.476 94.7287 469.131 94.7287 465.627 92.674 463.283 108.159 464.151 119.343 469.217 119.848 473.9 117.375 479.314 104.6 484.753 88 484.993Z" fill="#000000" fill-rule="nonzero" fill-opacity="1"/></g></svg>