<svg width="96" height="97" xmlns="http://www.w3.org/2000/svg" xmlns:xlink="http://www.w3.org/1999/xlink" xml:space="preserve" overflow="hidden"><defs><clipPath id="clip0"><rect x="32" y="96" width="96" height="97"/></clipPath><clipPath id="clip1"><rect x="32" y="97" width="96" height="96"/></clipPath><clipPath id="clip2"><rect x="32" y="97" width="96" height="96"/></clipPath><clipPath id="clip3"><rect x="32" y="97" width="96" height="96"/></clipPath></defs><g clip-path="url(#clip0)" transform="translate(-32 -96)"><g clip-path="url(#clip1)"><g clip-path="url(#clip2)"><g clip-path="url(#clip3)"><path d="M112.386 127.694 111.561 129.517 118 132.736 118 174.264 101 165.764 101 149 99 149 99 165.764 81 174.764 81 133.236 88.38 129.546 87.554 127.723 80 131.5 60 121.5 40 131.5 40 177.5 60 167.5 80 177.5 100 167.5 120 177.5 120 131.5ZM59 165.764 42 174.264 42 132.736 59 124.236ZM79 174.764 61 165.764 61 124.236 79 133.236Z" fill="#000000" fill-rule="nonzero" fill-opacity="1"/><path d="M99.963 114.513C102.72 114.51 105.297 115.883 106.832 118.173 108.366 120.441 108.698 123.315 107.719 125.873L103.082 136.123 99.963 142.67 96.863 136.164 92.208 125.877C91.2289 123.312 91.5649 120.431 93.108 118.16 94.6433 115.876 97.2162 114.508 99.968 114.513M99.968 112.513C96.5507 112.509 93.3563 114.208 91.449 117.044 89.5331 119.872 89.1279 123.46 90.365 126.644L95.044 136.986 99.082 145.456C99.3381 145.945 99.9424 146.134 100.432 145.878 100.612 145.784 100.759 145.637 100.854 145.456L104.893 136.986 109.571 126.644C110.808 123.46 110.404 119.872 108.488 117.044 106.58 114.209 103.385 112.51 99.968 112.513Z" fill="#000000" fill-rule="nonzero" fill-opacity="1"/><path d="M99.963 120.423C101.306 120.423 102.395 121.512 102.395 122.855 102.395 124.198 101.306 125.287 99.963 125.287 98.6198 125.287 97.531 124.198 97.531 122.855 97.5166 121.526 98.582 120.437 99.9107 120.423 99.9281 120.423 99.9456 120.423 99.963 120.423M99.963 118.423C97.5153 118.426 95.5332 120.412 95.536 122.86 95.5388 125.308 97.5253 127.29 99.973 127.287 102.419 127.284 104.4 125.301 104.4 122.855 104.41 120.418 102.443 118.434 100.006 118.423 99.9934 118.423 99.9807 118.423 99.968 118.423Z" fill="#000000" fill-rule="nonzero" fill-opacity="1"/></g></g></g></g></svg>