<svg width="96" height="97" xmlns="http://www.w3.org/2000/svg" xmlns:xlink="http://www.w3.org/1999/xlink" xml:space="preserve" overflow="hidden"><defs><clipPath id="clip0"><rect x="40" y="256" width="96" height="97"/></clipPath><clipPath id="clip1"><rect x="40" y="257" width="96" height="96"/></clipPath><clipPath id="clip2"><rect x="40" y="257" width="96" height="96"/></clipPath><clipPath id="clip3"><rect x="40" y="257" width="96" height="96"/></clipPath></defs><g clip-path="url(#clip0)" transform="translate(-40 -256)"><g clip-path="url(#clip1)"><g clip-path="url(#clip2)"><g clip-path="url(#clip3)"><path d="M111.3 318.9C109.1 316.7 105.5 316.8 102.8 318.9L98.6 314.7C109.5 302.9 108.8 284.6 97 273.7 85.2 262.8 67 263.6 56.1 275.4 45.2 287.2 46 305.5 57.7 316.4 68.9 326.8 86.2 326.7 97.3 316.2L101.5 320.4C100.6 321.5 100.1 322.9 99.9 324.3 99.7 326 100.3 327.7 101.5 328.9L115.6 343C116.7 344 118.1 344.6 119.6 344.6 121.6 344.6 123.4 343.8 124.8 342.4 126.1 341.2 126.9 339.5 127 337.7 127.2 336 126.6 334.3 125.4 333.1L111.3 318.9ZM58.4 314.1C47.9 303.6 47.9 286.5 58.4 275.9 68.9 265.3 86 265.4 96.6 275.9 107.2 286.4 107.1 303.5 96.6 314.1 91.5 319.2 84.7 322 77.5 322 70.4 322 63.5 319.2 58.4 314.1ZM123.3 340.8C121.4 342.7 118.5 343 116.9 341.4L102.9 327.4C102.1 326.6 101.8 325.5 101.9 324.4 102 323.1 102.6 321.9 103.6 321 104.6 320 106 319.4 107.4 319.3 108.4 319.3 109.3 319.6 110 320.3L124 334.4C124.8 335.2 125.1 336.3 125 337.4 124.8 338.7 124.3 339.9 123.3 340.8 123.3 340.8 123.3 340.8 123.3 340.8Z" fill="#000000" fill-rule="nonzero" fill-opacity="1"/></g></g></g></g></svg>